<?xml version="1.0" standalone="no"?>
<!DOCTYPE svg PUBLIC "-//W3C//DTD SVG 20010904//EN"
 "http://www.w3.org/TR/2001/REC-SVG-20010904/DTD/svg10.dtd">
<svg version="1.0" xmlns="http://www.w3.org/2000/svg"
 width="2084.000000pt" height="2084.000000pt" viewBox="0 0 2084.000000 2084.000000"
 preserveAspectRatio="xMidYMid meet">
<metadata>
Created by potrace 1.14, written by Peter Selinger 2001-2017
</metadata>
<g transform="translate(0.000000,2084.000000) scale(0.100000,-0.100000)"
fill="#000000" stroke="none">
<path d="M10940 19095 c-19 -31 -40 -63 -45 -73 -6 -9 -17 -28 -26 -42 -79
-124 -376 -604 -384 -620 -5 -11 -13 -20 -17 -20 -5 0 -8 -4 -8 -9 0 -8 -88
-149 -258 -411 -30 -47 -75 -116 -100 -155 -140 -217 -572 -868 -697 -1050
-34 -49 -97 -142 -140 -205 -150 -220 -216 -316 -386 -560 -205 -293 -283
-405 -292 -415 -7 -9 -403 -563 -468 -656 -13 -19 -27 -36 -30 -39 -3 -3 -27
-36 -54 -75 -28 -38 -65 -90 -83 -115 -19 -25 -42 -56 -52 -70 -175 -239 -411
-560 -427 -580 -6 -8 -74 -98 -150 -200 -76 -102 -141 -189 -146 -195 -4 -5
-47 -62 -95 -126 -139 -185 -304 -402 -326 -430 -12 -14 -30 -38 -41 -53 -11
-15 -47 -63 -80 -105 -33 -43 -94 -122 -135 -175 -75 -98 -191 -248 -213 -276
-7 -8 -43 -56 -82 -105 -38 -50 -74 -95 -80 -102 -18 -21 -30 -37 -60 -78 -17
-22 -32 -42 -35 -45 -3 -3 -64 -79 -135 -170 -115 -147 -400 -507 -475 -600
-16 -19 -119 -147 -229 -285 -111 -137 -207 -257 -214 -265 -20 -24 -141 -173
-159 -195 -9 -11 -60 -74 -114 -140 -136 -167 -512 -622 -548 -666 -17 -19
-40 -46 -51 -60 -11 -13 -40 -49 -65 -79 -25 -30 -47 -57 -50 -60 -3 -3 -61
-72 -129 -155 -69 -82 -135 -161 -147 -175 -13 -14 -114 -133 -225 -265 -165
-195 -472 -556 -575 -675 -12 -14 -57 -65 -99 -115 -43 -49 -101 -116 -129
-149 -28 -32 -62 -72 -76 -89 -14 -17 -34 -40 -45 -51 -17 -18 -87 -99 -235
-270 -14 -16 -30 -34 -35 -40 -6 -6 -44 -49 -85 -96 -41 -47 -86 -98 -101
-115 -14 -16 -48 -55 -74 -85 -57 -65 -174 -197 -195 -220 -8 -9 -44 -50 -80
-91 -35 -41 -67 -76 -70 -79 -3 -3 -37 -41 -75 -84 -39 -44 -77 -87 -85 -96
-8 -9 -33 -37 -55 -61 -100 -111 -135 -151 -215 -239 -47 -52 -110 -121 -140
-155 -30 -33 -91 -100 -135 -149 -44 -49 -93 -103 -110 -120 -16 -18 -50 -55
-74 -82 -24 -27 -64 -71 -90 -99 -26 -27 -96 -104 -156 -170 -61 -66 -112
-122 -115 -125 -3 -3 -71 -75 -150 -160 -80 -85 -154 -164 -165 -175 -48 -49
-46 -56 5 -15 30 25 57 47 60 51 4 4 244 197 320 256 8 6 40 32 70 56 30 24
143 110 250 191 107 81 202 152 210 159 8 7 56 41 105 77 50 35 95 68 100 72
102 80 754 521 825 558 14 7 27 16 30 19 3 4 21 16 40 27 19 12 106 64 194
117 87 54 160 97 163 97 3 0 17 8 31 19 15 10 54 33 87 51 33 18 74 41 92 51
18 10 63 35 100 55 37 20 91 49 118 64 94 52 450 228 555 275 58 26 125 56
150 67 274 125 681 273 1006 367 124 36 368 96 434 107 14 2 57 11 95 19 99
21 255 45 390 60 28 3 66 7 85 10 214 24 732 25 870 0 14 -2 52 -7 85 -10 33
-3 69 -8 80 -11 11 -2 36 -6 55 -8 29 -4 129 -22 165 -31 6 -1 28 -5 50 -9
134 -26 477 -134 590 -185 11 -6 63 -28 115 -51 400 -175 806 -459 1161 -812
79 -79 171 -174 204 -213 33 -38 69 -79 80 -90 11 -12 34 -39 50 -60 17 -21
42 -52 56 -69 14 -17 63 -80 107 -141 45 -60 86 -114 90 -120 4 -5 48 -71 98
-145 78 -117 118 -181 208 -333 10 -18 54 -95 96 -172 212 -386 405 -821 575
-1295 103 -290 245 -754 310 -1020 24 -94 68 -280 71 -300 3 -14 14 -63 25
-110 19 -81 81 -385 93 -460 3 -19 8 -48 11 -65 17 -90 31 -181 40 -245 3 -25
10 -70 15 -100 5 -30 12 -82 16 -114 3 -33 8 -67 9 -75 2 -9 4 -29 4 -45 2
-59 12 -16 16 65 2 46 7 120 10 164 3 44 8 109 10 145 3 36 7 88 10 115 2 28
7 82 10 120 4 39 8 86 10 105 2 19 7 67 10 105 4 39 8 81 10 95 2 14 6 50 10
80 3 30 8 71 10 90 4 30 13 107 31 240 2 19 6 49 9 65 3 17 7 48 10 70 4 22
13 81 21 130 8 50 17 104 20 120 13 83 80 432 100 520 2 11 6 31 9 45 2 14 27
118 55 230 28 113 53 214 55 226 37 165 260 844 325 989 5 11 41 97 80 190
263 624 649 1244 1060 1700 56 63 354 360 400 400 322 277 566 449 915 645
133 75 457 226 592 276 38 14 75 28 83 31 8 3 17 7 20 8 3 1 12 5 20 8 49 20
372 124 413 132 10 2 27 7 37 10 10 3 27 8 37 10 10 2 72 17 138 34 66 16 134
32 150 34 17 3 77 15 135 26 125 24 266 47 335 56 28 3 68 8 90 11 43 5 81 9
190 19 39 4 86 8 105 10 259 26 976 26 1240 0 19 -2 71 -6 115 -10 84 -7 146
-13 205 -20 95 -11 147 -18 170 -20 31 -3 186 -25 220 -30 14 -3 43 -7 65 -10
22 -3 76 -12 120 -20 44 -8 98 -17 120 -21 22 -3 59 -10 83 -15 23 -5 59 -12
78 -15 20 -3 44 -7 53 -10 9 -2 59 -12 111 -23 102 -21 359 -81 450 -105 266
-70 485 -134 680 -198 164 -54 450 -156 512 -182 57 -24 55 -20 -19 36 -242
184 -319 243 -323 248 -3 3 -34 28 -70 55 -36 27 -70 54 -77 60 -6 5 -24 20
-40 32 -25 19 -184 144 -223 176 -222 178 -278 224 -295 238 -11 9 -116 96
-233 194 -117 97 -225 187 -240 199 -24 21 -186 159 -316 270 -27 22 -56 48
-65 56 -9 9 -50 45 -91 80 -41 36 -77 67 -80 70 -3 3 -43 39 -90 80 -47 41
-92 81 -101 90 -8 8 -42 38 -75 67 -32 28 -71 62 -85 75 -14 12 -64 59 -113
102 -48 44 -102 93 -120 110 -18 17 -75 70 -127 117 -157 145 -386 360 -588
554 -314 300 -1182 1177 -1391 1405 -18 19 -84 91 -149 160 -109 117 -146 156
-268 290 -67 73 -94 102 -183 201 -41 45 -84 92 -95 104 -11 12 -67 75 -125
141 -58 65 -109 124 -115 130 -5 6 -32 36 -60 68 -27 31 -63 71 -79 89 -194
217 -821 961 -986 1170 -8 11 -19 24 -25 31 -26 29 -73 86 -100 121 -31 40
-87 110 -106 134 -11 12 -143 178 -204 256 -12 17 -76 98 -140 180 -64 83
-122 157 -128 165 -7 8 -69 89 -137 180 -69 91 -127 167 -130 170 -3 3 -50 66
-105 140 -55 74 -103 140 -107 145 -14 17 -142 192 -158 215 -8 12 -20 28 -25
34 -10 10 -144 196 -175 243 -8 12 -69 97 -135 190 -235 330 -658 955 -824
1218 -25 39 -66 103 -93 143 -26 41 -48 75 -48 77 0 2 -27 46 -60 97 -32 51
-75 120 -95 153 -19 33 -49 83 -65 110 -17 28 -38 65 -47 83 -9 17 -19 32 -23
32 -3 0 -21 -25 -40 -55z"/>
</g>
</svg>
