<?xml version="1.0" encoding="UTF-8"?><svg id="Layer_1" xmlns="http://www.w3.org/2000/svg" viewBox="0 0 500 500"><defs><style>.cls-1{fill:#d7c142;}.cls-2{fill:#1b1a1e;}</style></defs><g><g><path class="cls-2" d="M148.22,323.93l6.24-2.57c7.07-2.91,12.65-6.7,16.58-11.28,3.86-4.49,5.82-9.98,5.82-16.33v-79.32c-12.92,2.96-27.67,11.73-43.88,26.08-16.76,14.83-25.25,30.6-25.25,46.89,0,11.06,2.05,18.76,6.09,22.88,4.17,4.26,10.02,7.99,17.38,11.08l6.11,2.56H41.05l6.25-2.57c6.63-2.73,12.51-6.97,17.45-12.6,4.86-5.54,7.32-11.82,7.32-18.68V159.23c0-4.02-1.18-6.92-3.6-8.88-2.47-2-6.05-3.01-10.64-3.01-9.17,0-18.36,3.38-27.32,10.03-8.84,6.57-13.32,17.58-13.32,32.72s3.39,28.98,10.09,39.54c6.71,10.58,17.73,19.97,32.76,27.91l4.75,2.51h-5.37c-19.87,0-34.7-6.03-44.07-17.93-9.3-11.8-14.01-26.28-14.01-43.06,0-19.52,7.05-34.97,20.97-45.92,13.82-10.87,30.21-16.39,48.73-16.39h67.87l-6.12,2.56c-7.38,3.09-13.49,7.03-18.18,11.72-4.56,4.56-6.87,10.24-6.87,16.88v69.82c12.13-9.59,23.99-17.23,35.31-22.71,11.62-5.64,22.99-9.51,33.82-11.53v-32.93c0-8.13-1.43-14.32-4.25-18.38-2.83-4.08-9.57-8.41-20.02-12.86l-6-2.56h99.31l-9,2.61c-10.45,3.03-16.95,7.57-19.33,13.47-2.5,6.19-4.02,12.19-4.53,17.84v30.15c9.82,1.61,16.16,3.63,19.36,6.16,3.34,2.66,5.79,7.35,7.27,13.95l.9,4-3.08-2.71c-5.08-4.47-9.1-7.42-11.95-8.77-2.57-1.22-6.77-1.88-12.5-1.97v82.26c0,6.58,2.17,11.99,6.63,16.53,4.52,4.6,10.35,8.33,17.34,11.07l6.56,2.57h-95.36Z"/><path class="cls-1" d="M236.53,138.1c-10.91,3.17-17.64,7.92-20.19,14.25-2.55,6.34-4.09,12.41-4.62,18.22v31.41c10.13,1.58,16.75,3.61,19.86,6.07,3.11,2.47,5.38,6.86,6.8,13.2-5.2-4.58-9.29-7.57-12.25-8.97-2.96-1.41-7.77-2.11-14.4-2.11v83.6c0,6.88,2.33,12.7,7.01,17.46,4.67,4.76,10.61,8.55,17.8,11.37h-81.56c7.3-3,12.99-6.88,17.09-11.64,4.09-4.76,6.14-10.49,6.14-17.2v-80.97c-13.6,2.65-28.96,11.56-46.09,26.73-17.14,15.17-25.7,31.13-25.7,47.89,0,11.47,2.15,19.41,6.47,23.82,4.31,4.4,10.25,8.2,17.82,11.37H47.8c6.86-2.82,12.84-7.14,17.95-12.95,5.1-5.82,7.66-12.34,7.66-19.56V159.23c0-4.4-1.37-7.71-4.09-9.91-2.73-2.21-6.56-3.31-11.48-3.31-9.5,0-18.87,3.43-28.11,10.29-9.24,6.86-13.86,18.13-13.86,33.79s3.43,29.43,10.29,40.26c6.86,10.82,17.95,20.28,33.26,28.38-19.53,0-33.88-5.81-43.03-17.43-9.15-11.61-13.73-25.69-13.73-42.23,0-19.18,6.82-34.14,20.46-44.87,13.64-10.73,29.6-16.1,47.91-16.1h61.24c-7.57,3.17-13.77,7.17-18.61,12.01-4.84,4.84-7.26,10.78-7.26,17.82v72.59c12.85-10.38,25.25-18.48,37.22-24.28,11.96-5.81,23.49-9.68,34.57-11.62v-34.05c0-8.45-1.49-14.83-4.48-19.14-3-4.31-9.86-8.75-20.59-13.33h83.41m18.74-2.67H71.03c-18.83,0-35.5,5.61-49.56,16.67C7.22,163.32,0,179.12,0,199.07,0,216.15,4.81,230.91,14.3,242.95c9.64,12.24,24.82,18.44,45.12,18.44h10.75l-9.5-5.02c-14.82-7.83-25.67-17.07-32.26-27.45-6.56-10.34-9.88-23.41-9.88-38.83s4.3-25.35,12.78-31.65c8.73-6.48,17.65-9.77,26.52-9.77,4.28,0,7.58,.91,9.81,2.72,2.09,1.69,3.1,4.25,3.1,7.84v130.85c0,6.62-2.29,12.44-6.99,17.81-4.81,5.48-10.52,9.6-16.96,12.24l-12.49,5.13H250.63l-13.13-5.15c-6.81-2.67-12.48-6.29-16.87-10.76-4.2-4.28-6.24-9.38-6.24-15.6v-80.89c5.96,.2,9.03,1.07,10.59,1.81,2.73,1.3,6.65,4.18,11.64,8.57l6.16,5.41-1.8-8c-1.57-7-4.11-11.81-7.74-14.7-3.26-2.58-9.44-4.63-18.85-6.25v-29.02c.51-5.48,2-11.31,4.43-17.34,2.22-5.51,8.43-9.77,18.46-12.69l18-5.23h0ZM109.07,235v-67.08c0-6.36,2.12-11.57,6.48-15.93,4.57-4.57,10.54-8.41,17.75-11.43l9.48-3.97,9.29,3.96c10.21,4.36,16.76,8.53,19.45,12.4,2.66,3.83,4.01,9.76,4.01,17.62v31.83c-10.62,2.09-21.74,5.93-33.07,11.43-10.73,5.2-21.94,12.31-33.39,21.17h0Zm33.65,89.75l-11-4.61c-7.19-3.02-12.89-6.64-16.94-10.78-3.79-3.87-5.7-11.26-5.7-21.95,0-15.89,8.34-31.32,24.8-45.89,15.35-13.6,29.35-22.12,41.66-25.38v77.62c0,6.1-1.8,11.16-5.49,15.46-3.8,4.42-9.21,8.09-16.08,10.92l-11.24,4.62h0Z"/></g><g><path class="cls-2" d="M280.35,312.59c-5.01,0-9.1-2.13-12.17-6.34-2.97-4.07-4.48-8.94-4.48-14.47v-77.67c0-3.67-1.59-3.67-2.36-3.67-2.06,0-6.29,1.5-14.71,8.66l-3.22,2.74,1.07-4.09c.95-3.62,4.62-8.33,11.21-14.37,6.56-6.01,12.9-9.06,18.85-9.06s10.22,2.37,12.66,7.05c2.29,4.39,3.45,9.66,3.45,15.66v74.17c.87,6.06,3.38,6.06,4.21,6.06,1.79,0,4-1.05,6.55-3.13,2.82-2.29,4.67-3.79,5.55-4.49l5.63-4.48-3.65,6.2c-4.28,7.28-8.7,12.69-13.14,16.06-4.54,3.44-9.74,5.19-15.46,5.19Zm-8.98-135.67c-4.24,0-7.44-2.26-9.52-6.71-1.92-4.12-2.89-8.97-2.89-14.43,0-7.08,1.77-12.09,5.25-14.89,3.4-2.74,8.03-4.12,13.77-4.12,4.76,0,8.81,1.74,12.06,5.17,3.22,3.41,4.85,8.07,4.85,13.85,0,6.6-2.86,11.86-8.51,15.63-5.48,3.65-10.52,5.5-15,5.5Z"/><path class="cls-1" d="M277.97,138.1c4.4,0,8.09,1.58,11.09,4.75,2.99,3.16,4.48,7.48,4.48,12.93,0,6.16-2.64,11-7.92,14.52-5.28,3.52-10.03,5.28-14.26,5.28-3.69,0-6.47-1.98-8.31-5.94s-2.77-8.58-2.77-13.86c0-6.69,1.58-11.3,4.75-13.86,3.17-2.55,7.48-3.83,12.93-3.83m-3.43,57.54c5.46,0,9.28,2.11,11.48,6.34,2.2,4.22,3.3,9.24,3.3,15.04v74.17c.7,4.93,2.55,7.39,5.54,7.39,2.11,0,4.58-1.14,7.39-3.43,2.81-2.28,4.66-3.78,5.54-4.48-4.22,7.17-8.49,12.4-12.8,15.68-4.32,3.28-9.2,4.91-14.65,4.91-4.58,0-8.28-1.93-11.09-5.79-2.81-3.86-4.22-8.43-4.22-13.69v-77.66c0-3.33-1.24-5.01-3.69-5.01-3.35,0-8.54,3-15.57,8.97,.88-3.34,4.48-7.92,10.82-13.73,6.34-5.81,12.31-8.71,17.95-8.71m3.43-60.21c-6.05,0-10.96,1.49-14.6,4.42-3.81,3.07-5.75,8.43-5.75,15.93,0,5.65,1.02,10.69,3.02,14.99,2.88,6.18,7.43,7.48,10.73,7.48,4.74,0,10.03-1.93,15.74-5.73,6.04-4.03,9.1-9.66,9.1-16.74,0-6.13-1.75-11.1-5.21-14.76-3.51-3.71-7.89-5.59-13.03-5.59h0Zm-3.43,57.54c-6.29,0-12.93,3.17-19.75,9.41-6.79,6.22-10.58,11.14-11.6,15.02l-2.15,8.19,6.45-5.48c8.54-7.26,12.34-8.34,13.85-8.34,.46,0,1.03,0,1.03,2.34v77.66c0,5.82,1.59,10.96,4.73,15.26,3.33,4.57,7.79,6.89,13.24,6.89,6.02,0,11.49-1.84,16.26-5.46,4.57-3.48,9.11-9.01,13.48-16.45l7.33-12.45-11.29,9.02c-.88,.71-2.74,2.21-5.56,4.5-2.88,2.34-4.69,2.84-5.71,2.84-1.42,0-2.39-1.65-2.88-4.92v-73.98c0-6.21-1.21-11.69-3.6-16.28-2.65-5.08-7.44-7.77-13.85-7.77h0Z"/></g><g><path class="cls-2" d="M275.63,399.16l.53-1.73c3.71-11.99,13.68-18.26,29.63-18.63,14.66-.34,21.79-6.03,21.79-17.4V213.34h-20.13l16.38-18.24h3.75v-11.55c0-13.71,3.5-25.73,10.4-35.72,7-10.15,16.38-15.3,27.89-15.3h52.99l-1.16,2c-4.55,7.84-10.55,12.84-17.82,14.87-7.02,1.96-15.98,2.95-26.62,2.95-8.49,0-13.96,.21-16.26,.63-1.15,.21-2.47,.9-2.47,4.33v37.77c25.23-.1,29.53-3.2,30.21-4.54l2.41,1.13c-3.62,8.21-8.01,13.94-13.06,17.02-4.78,2.91-11.35,4.46-19.55,4.61v108.75c0,26.76-4.94,46.49-14.68,58.64-9.81,12.25-21.4,18.45-34.43,18.45h-29.79Z"/><path class="cls-1" d="M416.54,133.87c-4.4,7.57-10.07,12.32-17.02,14.26-6.95,1.94-15.7,2.9-26.27,2.9-8.62,0-14.12,.22-16.5,.66-2.37,.44-3.56,2.32-3.56,5.64v39.11c20.06,0,30.97-1.76,32.73-5.28-3.52,7.99-7.7,13.47-12.54,16.42-4.84,2.95-11.57,4.43-20.19,4.43v110.07c0,26.57-4.8,45.84-14.39,57.81-9.59,11.96-20.72,17.95-33.39,17.95h-27.98c3.54-11.44,13.01-17.34,28.39-17.69,15.39-.35,23.09-6.59,23.09-18.74V212.01h-18.48l13.99-15.57h4.49v-12.88c0-13.49,3.38-25.14,10.16-34.96,6.77-9.81,15.71-14.72,26.79-14.72h50.68m4.63-2.67h-55.31c-11.96,0-21.72,5.34-28.99,15.87-7.05,10.22-10.63,22.49-10.63,36.47v10.22h-3.01l-.79,.88-13.99,15.57-4,4.45h21.79v146.73c0,6.7-2.12,15.65-20.48,16.07-16.59,.38-26.98,6.97-30.87,19.57l-1.07,3.45h31.59c13.46,0,25.39-6.38,35.47-18.95,9.94-12.39,14.97-32.4,14.97-59.47v-107.45c7.84-.29,14.19-1.89,18.91-4.77,5.29-3.23,9.86-9.16,13.59-17.62l-4.82-2.27c-.2,.38-2.69,3.58-27.68,3.8v-36.43c0-2.77,.9-2.93,1.38-3.02,1.52-.28,5.54-.61,16.01-.61s19.85-1.01,26.98-3c7.62-2.12,13.88-7.34,18.61-15.49l2.33-4h0Z"/></g><g><path class="cls-2" d="M437.39,312.59c-16.08,0-27.64-5.28-34.38-15.69-6.62-10.23-9.98-21.42-9.98-33.27,0-20.71,5.89-37.57,17.51-50.11,11.64-12.57,26.27-18.95,43.47-18.95,7.06,0,13,1.3,17.66,3.88,4.64,2.56,10.74,7.65,18.65,15.58l.94,.94-64.33,64.53c3.23,5,7.19,8.28,11.78,9.76,5.02,1.62,10.79,2.45,17.14,2.45s12.23-1.48,17.72-4.41c5.6-2.98,10.73-6.2,15.28-9.58l5.97-4.44-4.05,6.23c-7.11,10.94-15.06,19.26-23.63,24.75-8.62,5.53-18.63,8.33-29.75,8.33Zm1.58-98.46c-5.65,0-10.01,3.35-13.32,10.25-3.42,7.11-5.15,15.7-5.15,25.53,0,4.17,.26,8.17,.78,11.88,.42,3.03,1.14,6.06,2.14,9.05l16.99-16.58c9-9.73,13.59-17.1,13.59-21.85,0-5.82-1.4-10.39-4.16-13.57-2.75-3.17-6.31-4.71-10.87-4.71Z"/><path class="cls-1" d="M454.02,195.9c6.86,0,12.54,1.24,17.02,3.71,4.49,2.48,10.6,7.59,18.35,15.36l-64.14,64.34c3.52,5.81,7.87,9.55,13.07,11.22,5.19,1.68,11.04,2.51,17.55,2.51s12.63-1.52,18.34-4.57c5.72-3.04,10.86-6.28,15.44-9.68-7.04,10.82-14.78,18.94-23.23,24.35-8.45,5.41-18.12,8.12-29.03,8.12-15.67,0-26.75-5.03-33.26-15.08-6.51-10.05-9.76-20.9-9.76-32.54,0-20.46,5.71-36.86,17.16-49.21,11.43-12.35,25.6-18.52,42.49-18.52m-31.15,77.34c6.16-6.01,12.31-12.02,18.48-18.03,9.32-10.07,13.99-17.67,13.99-22.8,0-6.19-1.5-11-4.49-14.45-2.99-3.45-6.95-5.17-11.88-5.17-6.16,0-11,3.67-14.52,11-3.52,7.34-5.28,16.04-5.28,26.11,0,4.25,.26,8.26,.79,12.07,.53,3.8,1.49,7.56,2.9,11.27m31.15-80.01c-17.59,0-32.54,6.52-44.45,19.38-11.86,12.8-17.87,29.96-17.87,51.02,0,12.11,3.43,23.55,10.19,33.99,7,10.81,18.95,16.3,35.5,16.3,11.37,0,21.63-2.87,30.47-8.54,8.72-5.58,16.81-14.04,24.03-25.14l8.11-12.46-11.93,8.87c-4.49,3.34-9.57,6.52-15.11,9.47-5.3,2.83-11.05,4.26-17.09,4.26s-11.84-.8-16.73-2.38c-4.08-1.31-7.52-4.04-10.48-8.32l62.62-62.82,1.88-1.88-1.88-1.88c-8-8.02-14.2-13.19-18.95-15.81-4.87-2.68-11.03-4.04-18.31-4.04h0Zm-29.97,75.13c-.65-2.24-1.13-4.5-1.44-6.75-.51-3.65-.77-7.59-.77-11.7,0-9.63,1.69-18.02,5.02-24.96,3.07-6.39,7.03-9.49,12.11-9.49,4.16,0,7.38,1.39,9.87,4.25,2.55,2.93,3.84,7.21,3.84,12.7,0,3.02-2.3,9.11-13.23,20.94l-12.14,11.84-3.25,3.17h0Z"/></g></g><g><path class="cls-2" d="M254.79,102.13s53.88,94.17,153.81,169.5c0,0-145.44-62.26-153.81,104.63,0,0-17-182.06-171.07-54.41,0,0,103.32-108.29,171.07-219.72Z"/><path class="cls-1" d="M253.46,376.38c-.02-.19-1.85-19.15-9.33-40.18-6.85-19.28-19.97-44.31-43.59-54.1-29.52-12.23-68.55,1.48-115.97,40.78l-1.82-1.95c1.03-1.08,104-109.47,170.9-219.5l1.17-1.93,1.12,1.96c.54,.94,54.91,94.81,153.45,169.1l8.76,6.6-10.08-4.31c-.62-.26-62.18-26.06-106.46,1.59-27.66,17.28-42.97,51.55-45.49,101.88l-2.66,.06Zm-75.37-101.27c8.35,0,16.19,1.51,23.48,4.53,19.42,8.05,35.02,27.32,45.1,55.73,3.88,10.93,6.26,21.31,7.66,28.86,4.3-44.77,19.71-75.7,45.89-92.05,35.72-22.3,82.15-10.82,100.72-4.74-86.98-67.75-138.04-149.24-146.16-162.72-53.63,87.65-129.58,173.86-158.4,205.44,31.08-23.33,58.43-35.04,81.71-35.04Z"/></g></svg>